<mxfile host="app.diagrams.net" modified="2024-03-21T22:01:17.249Z" agent="Mozilla/5.0 (Windows NT 10.0; Win64; x64) AppleWebKit/537.36 (KHTML, like Gecko) Chrome/122.0.0.0 Safari/537.36" etag="i5Ods5K4b_baLifrrSt9" version="24.0.7" type="github">
  <diagram name="Page-1" id="929967ad-93f9-6ef4-fab6-5d389245f69c">
    <mxGraphModel dx="6008.5" dy="1835" grid="1" gridSize="10" guides="1" tooltips="1" connect="1" arrows="1" fold="1" page="1" pageScale="1.5" pageWidth="1169" pageHeight="826" background="none" math="0" shadow="0">
      <root>
        <mxCell id="0" style=";html=1;" />
        <mxCell id="1" style=";html=1;" parent="0" />
        <mxCell id="1672d66443f91eb5-1" value="&lt;p style=&quot;margin: 0px ; margin-top: 4px ; margin-left: 10px ; text-align: left&quot;&gt;&lt;b&gt;Ejercicio 1&lt;/b&gt;&lt;/p&gt;" style="html=1;strokeWidth=1;shape=mxgraph.sysml.package;html=1;overflow=fill;whiteSpace=wrap;fillColor=none;gradientColor=none;fontSize=12;align=center;labelX=327.64;" parent="1" vertex="1">
          <mxGeometry x="-830" y="175" width="620" height="360" as="geometry" />
        </mxCell>
        <mxCell id="1672d66443f91eb5-23" value="GUIA 1 LAB Base Datos" style="text;strokeColor=none;fillColor=none;html=1;fontSize=24;fontStyle=1;verticalAlign=middle;align=center;" parent="1" vertex="1">
          <mxGeometry x="-770" y="50" width="1510" height="40" as="geometry" />
        </mxCell>
        <mxCell id="ZPIlwWj8LMpfvsK2ReM4-1" value="Huesped" style="swimlane;fontStyle=0;childLayout=stackLayout;horizontal=1;startSize=30;horizontalStack=0;resizeParent=1;resizeParentMax=0;resizeLast=0;collapsible=1;marginBottom=0;whiteSpace=wrap;html=1;" vertex="1" parent="1">
          <mxGeometry x="-770" y="225" width="140" height="90" as="geometry" />
        </mxCell>
        <mxCell id="ZPIlwWj8LMpfvsK2ReM4-2" value="&lt;u&gt;rut&lt;/u&gt;" style="text;strokeColor=none;fillColor=none;align=left;verticalAlign=middle;spacingLeft=4;spacingRight=4;overflow=hidden;points=[[0,0.5],[1,0.5]];portConstraint=eastwest;rotatable=0;whiteSpace=wrap;html=1;" vertex="1" parent="ZPIlwWj8LMpfvsK2ReM4-1">
          <mxGeometry y="30" width="140" height="30" as="geometry" />
        </mxCell>
        <mxCell id="ZPIlwWj8LMpfvsK2ReM4-3" value="Nombre" style="text;strokeColor=none;fillColor=none;align=left;verticalAlign=middle;spacingLeft=4;spacingRight=4;overflow=hidden;points=[[0,0.5],[1,0.5]];portConstraint=eastwest;rotatable=0;whiteSpace=wrap;html=1;" vertex="1" parent="ZPIlwWj8LMpfvsK2ReM4-1">
          <mxGeometry y="60" width="140" height="30" as="geometry" />
        </mxCell>
        <mxCell id="ZPIlwWj8LMpfvsK2ReM4-5" value="Tipo de habitación" style="swimlane;fontStyle=0;childLayout=stackLayout;horizontal=1;startSize=30;horizontalStack=0;resizeParent=1;resizeParentMax=0;resizeLast=0;collapsible=1;marginBottom=0;whiteSpace=wrap;html=1;" vertex="1" parent="1">
          <mxGeometry x="-680" y="420" width="140" height="60" as="geometry" />
        </mxCell>
        <mxCell id="ZPIlwWj8LMpfvsK2ReM4-6" value="&lt;u&gt;id&lt;/u&gt;&lt;div&gt;nombre&lt;/div&gt;" style="text;strokeColor=none;fillColor=none;align=left;verticalAlign=middle;spacingLeft=4;spacingRight=4;overflow=hidden;points=[[0,0.5],[1,0.5]];portConstraint=eastwest;rotatable=0;whiteSpace=wrap;html=1;" vertex="1" parent="ZPIlwWj8LMpfvsK2ReM4-5">
          <mxGeometry y="30" width="140" height="30" as="geometry" />
        </mxCell>
        <mxCell id="ZPIlwWj8LMpfvsK2ReM4-9" value="Habitaciòn" style="swimlane;fontStyle=0;childLayout=stackLayout;horizontal=1;startSize=30;horizontalStack=0;resizeParent=1;resizeParentMax=0;resizeLast=0;collapsible=1;marginBottom=0;whiteSpace=wrap;html=1;" vertex="1" parent="1">
          <mxGeometry x="-370" y="235" width="140" height="60" as="geometry" />
        </mxCell>
        <mxCell id="ZPIlwWj8LMpfvsK2ReM4-10" value="&lt;u&gt;numero&lt;/u&gt;&lt;div&gt;&lt;u&gt;&lt;br&gt;&lt;/u&gt;&lt;/div&gt;" style="text;strokeColor=none;fillColor=none;align=left;verticalAlign=middle;spacingLeft=4;spacingRight=4;overflow=hidden;points=[[0,0.5],[1,0.5]];portConstraint=eastwest;rotatable=0;whiteSpace=wrap;html=1;" vertex="1" parent="ZPIlwWj8LMpfvsK2ReM4-9">
          <mxGeometry y="30" width="140" height="30" as="geometry" />
        </mxCell>
        <mxCell id="ZPIlwWj8LMpfvsK2ReM4-14" value="se alojan" style="rhombus;whiteSpace=wrap;html=1;" vertex="1" parent="1">
          <mxGeometry x="-540" y="240" width="80" height="80" as="geometry" />
        </mxCell>
        <mxCell id="ZPIlwWj8LMpfvsK2ReM4-15" value="" style="endArrow=none;html=1;rounded=0;exitX=1.01;exitY=-0.196;exitDx=0;exitDy=0;entryX=0;entryY=0.5;entryDx=0;entryDy=0;exitPerimeter=0;" edge="1" parent="1" source="ZPIlwWj8LMpfvsK2ReM4-3" target="ZPIlwWj8LMpfvsK2ReM4-14">
          <mxGeometry width="50" height="50" relative="1" as="geometry">
            <mxPoint x="-290" y="415" as="sourcePoint" />
            <mxPoint x="-240" y="365" as="targetPoint" />
          </mxGeometry>
        </mxCell>
        <mxCell id="ZPIlwWj8LMpfvsK2ReM4-18" value="0.n." style="edgeLabel;html=1;align=center;verticalAlign=middle;resizable=0;points=[];" vertex="1" connectable="0" parent="ZPIlwWj8LMpfvsK2ReM4-15">
          <mxGeometry x="-0.4547" y="-2" relative="1" as="geometry">
            <mxPoint as="offset" />
          </mxGeometry>
        </mxCell>
        <mxCell id="ZPIlwWj8LMpfvsK2ReM4-16" value="" style="endArrow=none;html=1;rounded=0;exitX=1;exitY=0.5;exitDx=0;exitDy=0;entryX=0;entryY=0.5;entryDx=0;entryDy=0;" edge="1" parent="1" source="ZPIlwWj8LMpfvsK2ReM4-14" target="ZPIlwWj8LMpfvsK2ReM4-10">
          <mxGeometry width="50" height="50" relative="1" as="geometry">
            <mxPoint x="-290" y="415" as="sourcePoint" />
            <mxPoint x="-369.9999999999998" y="280" as="targetPoint" />
          </mxGeometry>
        </mxCell>
        <mxCell id="ZPIlwWj8LMpfvsK2ReM4-23" value="1,n" style="edgeLabel;html=1;align=center;verticalAlign=middle;resizable=0;points=[];" vertex="1" connectable="0" parent="ZPIlwWj8LMpfvsK2ReM4-16">
          <mxGeometry x="0.5541" y="-1" relative="1" as="geometry">
            <mxPoint x="-1" as="offset" />
          </mxGeometry>
        </mxCell>
        <mxCell id="ZPIlwWj8LMpfvsK2ReM4-19" value="tiene" style="rhombus;whiteSpace=wrap;html=1;" vertex="1" parent="1">
          <mxGeometry x="-330" y="425" width="80" height="80" as="geometry" />
        </mxCell>
        <mxCell id="ZPIlwWj8LMpfvsK2ReM4-20" value="" style="endArrow=none;html=1;rounded=0;exitX=0.5;exitY=0;exitDx=0;exitDy=0;" edge="1" parent="1" source="ZPIlwWj8LMpfvsK2ReM4-19">
          <mxGeometry width="50" height="50" relative="1" as="geometry">
            <mxPoint x="-290" y="415" as="sourcePoint" />
            <mxPoint x="-289" y="298" as="targetPoint" />
          </mxGeometry>
        </mxCell>
        <mxCell id="ZPIlwWj8LMpfvsK2ReM4-25" value="0,n" style="edgeLabel;html=1;align=center;verticalAlign=middle;resizable=0;points=[];" vertex="1" connectable="0" parent="ZPIlwWj8LMpfvsK2ReM4-20">
          <mxGeometry x="0.6865" y="-1" relative="1" as="geometry">
            <mxPoint y="1" as="offset" />
          </mxGeometry>
        </mxCell>
        <mxCell id="ZPIlwWj8LMpfvsK2ReM4-21" value="" style="endArrow=none;html=1;rounded=0;exitX=1;exitY=0.5;exitDx=0;exitDy=0;entryX=0;entryY=0.5;entryDx=0;entryDy=0;" edge="1" parent="1" source="ZPIlwWj8LMpfvsK2ReM4-6" target="ZPIlwWj8LMpfvsK2ReM4-19">
          <mxGeometry width="50" height="50" relative="1" as="geometry">
            <mxPoint x="-290" y="415" as="sourcePoint" />
            <mxPoint x="-240" y="365" as="targetPoint" />
          </mxGeometry>
        </mxCell>
        <mxCell id="ZPIlwWj8LMpfvsK2ReM4-24" value="1,1" style="edgeLabel;html=1;align=center;verticalAlign=middle;resizable=0;points=[];" vertex="1" connectable="0" parent="ZPIlwWj8LMpfvsK2ReM4-21">
          <mxGeometry x="-0.846" y="1" relative="1" as="geometry">
            <mxPoint x="-1" as="offset" />
          </mxGeometry>
        </mxCell>
        <mxCell id="ZPIlwWj8LMpfvsK2ReM4-26" value="&lt;p style=&quot;margin: 0px ; margin-top: 4px ; margin-left: 10px ; text-align: left&quot;&gt;&lt;b&gt;Ejercicio 2&lt;/b&gt;&lt;/p&gt;" style="html=1;strokeWidth=1;shape=mxgraph.sysml.package;html=1;overflow=fill;whiteSpace=wrap;fillColor=none;gradientColor=none;fontSize=12;align=center;labelX=327.64;" vertex="1" parent="1">
          <mxGeometry x="-830" y="640" width="670" height="425" as="geometry" />
        </mxCell>
        <mxCell id="ZPIlwWj8LMpfvsK2ReM4-28" value="" style="endArrow=none;html=1;rounded=0;entryX=1;entryY=1;entryDx=0;entryDy=0;exitX=0;exitY=0;exitDx=0;exitDy=0;" edge="1" parent="1" source="ZPIlwWj8LMpfvsK2ReM4-29" target="ZPIlwWj8LMpfvsK2ReM4-14">
          <mxGeometry width="50" height="50" relative="1" as="geometry">
            <mxPoint x="-450" y="335" as="sourcePoint" />
            <mxPoint x="-460" y="325" as="targetPoint" />
          </mxGeometry>
        </mxCell>
        <mxCell id="ZPIlwWj8LMpfvsK2ReM4-29" value="fecha entrada" style="ellipse;whiteSpace=wrap;html=1;" vertex="1" parent="1">
          <mxGeometry x="-430" y="335" width="60" height="35" as="geometry" />
        </mxCell>
        <mxCell id="ZPIlwWj8LMpfvsK2ReM4-30" value="fecha salida" style="ellipse;whiteSpace=wrap;html=1;" vertex="1" parent="1">
          <mxGeometry x="-610" y="335" width="70" height="40" as="geometry" />
        </mxCell>
        <mxCell id="ZPIlwWj8LMpfvsK2ReM4-31" value="" style="endArrow=none;html=1;rounded=0;entryX=0;entryY=1;entryDx=0;entryDy=0;exitX=1;exitY=0;exitDx=0;exitDy=0;" edge="1" parent="1" source="ZPIlwWj8LMpfvsK2ReM4-30" target="ZPIlwWj8LMpfvsK2ReM4-14">
          <mxGeometry width="50" height="50" relative="1" as="geometry">
            <mxPoint x="-510" y="375" as="sourcePoint" />
            <mxPoint x="-460" y="325" as="targetPoint" />
          </mxGeometry>
        </mxCell>
        <mxCell id="ZPIlwWj8LMpfvsK2ReM4-33" value="Proyecto" style="swimlane;fontStyle=0;childLayout=stackLayout;horizontal=1;startSize=30;horizontalStack=0;resizeParent=1;resizeParentMax=0;resizeLast=0;collapsible=1;marginBottom=0;whiteSpace=wrap;html=1;" vertex="1" parent="1">
          <mxGeometry x="-420" y="740" width="140" height="60" as="geometry" />
        </mxCell>
        <mxCell id="ZPIlwWj8LMpfvsK2ReM4-34" value="&lt;u&gt;idP&lt;/u&gt;&lt;div&gt;nombre&lt;/div&gt;" style="text;strokeColor=none;fillColor=none;align=left;verticalAlign=middle;spacingLeft=4;spacingRight=4;overflow=hidden;points=[[0,0.5],[1,0.5]];portConstraint=eastwest;rotatable=0;whiteSpace=wrap;html=1;" vertex="1" parent="ZPIlwWj8LMpfvsK2ReM4-33">
          <mxGeometry y="30" width="140" height="30" as="geometry" />
        </mxCell>
        <mxCell id="ZPIlwWj8LMpfvsK2ReM4-37" value="Académico" style="swimlane;fontStyle=0;childLayout=stackLayout;horizontal=1;startSize=30;horizontalStack=0;resizeParent=1;resizeParentMax=0;resizeLast=0;collapsible=1;marginBottom=0;whiteSpace=wrap;html=1;" vertex="1" parent="1">
          <mxGeometry x="-750" y="710" width="140" height="90" as="geometry" />
        </mxCell>
        <mxCell id="ZPIlwWj8LMpfvsK2ReM4-38" value="&lt;u&gt;Rut&lt;/u&gt;" style="text;strokeColor=none;fillColor=none;align=left;verticalAlign=middle;spacingLeft=4;spacingRight=4;overflow=hidden;points=[[0,0.5],[1,0.5]];portConstraint=eastwest;rotatable=0;whiteSpace=wrap;html=1;" vertex="1" parent="ZPIlwWj8LMpfvsK2ReM4-37">
          <mxGeometry y="30" width="140" height="30" as="geometry" />
        </mxCell>
        <mxCell id="ZPIlwWj8LMpfvsK2ReM4-39" value="Nombre" style="text;strokeColor=none;fillColor=none;align=left;verticalAlign=middle;spacingLeft=4;spacingRight=4;overflow=hidden;points=[[0,0.5],[1,0.5]];portConstraint=eastwest;rotatable=0;whiteSpace=wrap;html=1;" vertex="1" parent="ZPIlwWj8LMpfvsK2ReM4-37">
          <mxGeometry y="60" width="140" height="30" as="geometry" />
        </mxCell>
        <mxCell id="ZPIlwWj8LMpfvsK2ReM4-43" value="Tipo de proyecto" style="swimlane;fontStyle=0;childLayout=stackLayout;horizontal=1;startSize=30;horizontalStack=0;resizeParent=1;resizeParentMax=0;resizeLast=0;collapsible=1;marginBottom=0;whiteSpace=wrap;html=1;" vertex="1" parent="1">
          <mxGeometry x="-520" y="955" width="140" height="90" as="geometry" />
        </mxCell>
        <mxCell id="ZPIlwWj8LMpfvsK2ReM4-44" value="&lt;u&gt;idt&lt;/u&gt;" style="text;strokeColor=none;fillColor=none;align=left;verticalAlign=middle;spacingLeft=4;spacingRight=4;overflow=hidden;points=[[0,0.5],[1,0.5]];portConstraint=eastwest;rotatable=0;whiteSpace=wrap;html=1;" vertex="1" parent="ZPIlwWj8LMpfvsK2ReM4-43">
          <mxGeometry y="30" width="140" height="30" as="geometry" />
        </mxCell>
        <mxCell id="ZPIlwWj8LMpfvsK2ReM4-45" value="descripciòn" style="text;strokeColor=none;fillColor=none;align=left;verticalAlign=middle;spacingLeft=4;spacingRight=4;overflow=hidden;points=[[0,0.5],[1,0.5]];portConstraint=eastwest;rotatable=0;whiteSpace=wrap;html=1;" vertex="1" parent="ZPIlwWj8LMpfvsK2ReM4-43">
          <mxGeometry y="60" width="140" height="30" as="geometry" />
        </mxCell>
        <mxCell id="ZPIlwWj8LMpfvsK2ReM4-47" value="participa" style="rhombus;whiteSpace=wrap;html=1;" vertex="1" parent="1">
          <mxGeometry x="-550" y="710" width="60" height="60" as="geometry" />
        </mxCell>
        <mxCell id="ZPIlwWj8LMpfvsK2ReM4-48" value="" style="endArrow=none;html=1;rounded=0;entryX=0;entryY=0.5;entryDx=0;entryDy=0;exitX=1.014;exitY=-0.031;exitDx=0;exitDy=0;exitPerimeter=0;" edge="1" parent="1" source="ZPIlwWj8LMpfvsK2ReM4-38" target="ZPIlwWj8LMpfvsK2ReM4-47">
          <mxGeometry width="50" height="50" relative="1" as="geometry">
            <mxPoint x="-610" y="765" as="sourcePoint" />
            <mxPoint x="-300" y="715" as="targetPoint" />
          </mxGeometry>
        </mxCell>
        <mxCell id="ZPIlwWj8LMpfvsK2ReM4-52" value="1,n" style="edgeLabel;html=1;align=center;verticalAlign=middle;resizable=0;points=[];" vertex="1" connectable="0" parent="ZPIlwWj8LMpfvsK2ReM4-48">
          <mxGeometry x="-0.6393" y="3" relative="1" as="geometry">
            <mxPoint x="1" as="offset" />
          </mxGeometry>
        </mxCell>
        <mxCell id="ZPIlwWj8LMpfvsK2ReM4-49" value="" style="endArrow=none;html=1;rounded=0;exitX=1;exitY=0.5;exitDx=0;exitDy=0;entryX=-0.021;entryY=-0.164;entryDx=0;entryDy=0;entryPerimeter=0;" edge="1" parent="1" source="ZPIlwWj8LMpfvsK2ReM4-47" target="ZPIlwWj8LMpfvsK2ReM4-34">
          <mxGeometry width="50" height="50" relative="1" as="geometry">
            <mxPoint x="-350" y="765" as="sourcePoint" />
            <mxPoint x="-300" y="715" as="targetPoint" />
          </mxGeometry>
        </mxCell>
        <mxCell id="ZPIlwWj8LMpfvsK2ReM4-53" value="0,n" style="edgeLabel;html=1;align=center;verticalAlign=middle;resizable=0;points=[];" vertex="1" connectable="0" parent="ZPIlwWj8LMpfvsK2ReM4-49">
          <mxGeometry x="0.4761" y="-1" relative="1" as="geometry">
            <mxPoint as="offset" />
          </mxGeometry>
        </mxCell>
        <mxCell id="ZPIlwWj8LMpfvsK2ReM4-50" value="" style="endArrow=none;html=1;rounded=0;exitX=1;exitY=0;exitDx=0;exitDy=0;entryX=0.063;entryY=0.807;entryDx=0;entryDy=0;entryPerimeter=0;" edge="1" parent="1" source="ZPIlwWj8LMpfvsK2ReM4-47" target="ZPIlwWj8LMpfvsK2ReM4-51">
          <mxGeometry width="50" height="50" relative="1" as="geometry">
            <mxPoint x="-270" y="735" as="sourcePoint" />
            <mxPoint x="-490" y="695" as="targetPoint" />
          </mxGeometry>
        </mxCell>
        <mxCell id="ZPIlwWj8LMpfvsK2ReM4-51" value="semestre" style="ellipse;whiteSpace=wrap;html=1;" vertex="1" parent="1">
          <mxGeometry x="-500" y="665" width="90" height="40" as="geometry" />
        </mxCell>
        <mxCell id="ZPIlwWj8LMpfvsK2ReM4-55" value="tiene" style="rhombus;whiteSpace=wrap;html=1;" vertex="1" parent="1">
          <mxGeometry x="-410" y="845" width="60" height="60" as="geometry" />
        </mxCell>
        <mxCell id="ZPIlwWj8LMpfvsK2ReM4-56" value="" style="endArrow=none;html=1;rounded=0;entryX=0.474;entryY=1.14;entryDx=0;entryDy=0;entryPerimeter=0;exitX=0.5;exitY=0;exitDx=0;exitDy=0;" edge="1" parent="1" source="ZPIlwWj8LMpfvsK2ReM4-55" target="ZPIlwWj8LMpfvsK2ReM4-34">
          <mxGeometry width="50" height="50" relative="1" as="geometry">
            <mxPoint x="-460" y="885" as="sourcePoint" />
            <mxPoint x="-410" y="835" as="targetPoint" />
          </mxGeometry>
        </mxCell>
        <mxCell id="ZPIlwWj8LMpfvsK2ReM4-58" value="0,n" style="edgeLabel;html=1;align=center;verticalAlign=middle;resizable=0;points=[];" vertex="1" connectable="0" parent="ZPIlwWj8LMpfvsK2ReM4-56">
          <mxGeometry x="0.5522" relative="1" as="geometry">
            <mxPoint as="offset" />
          </mxGeometry>
        </mxCell>
        <mxCell id="ZPIlwWj8LMpfvsK2ReM4-57" value="" style="endArrow=none;html=1;rounded=0;entryX=0.5;entryY=1;entryDx=0;entryDy=0;exitX=0.75;exitY=0;exitDx=0;exitDy=0;" edge="1" parent="1" source="ZPIlwWj8LMpfvsK2ReM4-43" target="ZPIlwWj8LMpfvsK2ReM4-55">
          <mxGeometry width="50" height="50" relative="1" as="geometry">
            <mxPoint x="-460" y="885" as="sourcePoint" />
            <mxPoint x="-410" y="835" as="targetPoint" />
          </mxGeometry>
        </mxCell>
        <mxCell id="ZPIlwWj8LMpfvsK2ReM4-59" value="1,1" style="edgeLabel;html=1;align=center;verticalAlign=middle;resizable=0;points=[];" vertex="1" connectable="0" parent="ZPIlwWj8LMpfvsK2ReM4-57">
          <mxGeometry x="-0.5056" relative="1" as="geometry">
            <mxPoint as="offset" />
          </mxGeometry>
        </mxCell>
        <mxCell id="ZPIlwWj8LMpfvsK2ReM4-60" value="jefe proyecto" style="rhombus;whiteSpace=wrap;html=1;" vertex="1" parent="1">
          <mxGeometry x="-555" y="785" width="70" height="70" as="geometry" />
        </mxCell>
        <mxCell id="ZPIlwWj8LMpfvsK2ReM4-61" value="" style="endArrow=none;html=1;rounded=0;exitX=1;exitY=0.5;exitDx=0;exitDy=0;entryX=0;entryY=0.5;entryDx=0;entryDy=0;" edge="1" parent="1" source="ZPIlwWj8LMpfvsK2ReM4-39" target="ZPIlwWj8LMpfvsK2ReM4-60">
          <mxGeometry width="50" height="50" relative="1" as="geometry">
            <mxPoint x="-350" y="845" as="sourcePoint" />
            <mxPoint x="-300" y="795" as="targetPoint" />
          </mxGeometry>
        </mxCell>
        <mxCell id="ZPIlwWj8LMpfvsK2ReM4-63" value="1,1" style="edgeLabel;html=1;align=center;verticalAlign=middle;resizable=0;points=[];" vertex="1" connectable="0" parent="ZPIlwWj8LMpfvsK2ReM4-61">
          <mxGeometry x="-0.69" y="-1" relative="1" as="geometry">
            <mxPoint as="offset" />
          </mxGeometry>
        </mxCell>
        <mxCell id="ZPIlwWj8LMpfvsK2ReM4-62" value="" style="endArrow=none;html=1;rounded=0;exitX=1;exitY=0.5;exitDx=0;exitDy=0;entryX=0;entryY=0.5;entryDx=0;entryDy=0;" edge="1" parent="1" source="ZPIlwWj8LMpfvsK2ReM4-60" target="ZPIlwWj8LMpfvsK2ReM4-34">
          <mxGeometry width="50" height="50" relative="1" as="geometry">
            <mxPoint x="-350" y="845" as="sourcePoint" />
            <mxPoint x="-300" y="795" as="targetPoint" />
          </mxGeometry>
        </mxCell>
        <mxCell id="ZPIlwWj8LMpfvsK2ReM4-64" value="0,n" style="edgeLabel;html=1;align=center;verticalAlign=middle;resizable=0;points=[];" vertex="1" connectable="0" parent="ZPIlwWj8LMpfvsK2ReM4-62">
          <mxGeometry x="0.6871" relative="1" as="geometry">
            <mxPoint y="1" as="offset" />
          </mxGeometry>
        </mxCell>
        <mxCell id="ZPIlwWj8LMpfvsK2ReM4-65" value="Alumnos memoristas" style="swimlane;fontStyle=0;childLayout=stackLayout;horizontal=1;startSize=30;horizontalStack=0;resizeParent=1;resizeParentMax=0;resizeLast=0;collapsible=1;marginBottom=0;whiteSpace=wrap;html=1;" vertex="1" parent="1">
          <mxGeometry x="340" y="180" width="140" height="90" as="geometry" />
        </mxCell>
        <mxCell id="ZPIlwWj8LMpfvsK2ReM4-66" value="&lt;u&gt;Rut&lt;/u&gt;" style="text;strokeColor=none;fillColor=none;align=left;verticalAlign=middle;spacingLeft=4;spacingRight=4;overflow=hidden;points=[[0,0.5],[1,0.5]];portConstraint=eastwest;rotatable=0;whiteSpace=wrap;html=1;" vertex="1" parent="ZPIlwWj8LMpfvsK2ReM4-65">
          <mxGeometry y="30" width="140" height="30" as="geometry" />
        </mxCell>
        <mxCell id="ZPIlwWj8LMpfvsK2ReM4-68" value="Nombre" style="text;strokeColor=none;fillColor=none;align=left;verticalAlign=middle;spacingLeft=4;spacingRight=4;overflow=hidden;points=[[0,0.5],[1,0.5]];portConstraint=eastwest;rotatable=0;whiteSpace=wrap;html=1;" vertex="1" parent="ZPIlwWj8LMpfvsK2ReM4-65">
          <mxGeometry y="60" width="140" height="30" as="geometry" />
        </mxCell>
        <mxCell id="ZPIlwWj8LMpfvsK2ReM4-69" value="Profesores" style="swimlane;fontStyle=0;childLayout=stackLayout;horizontal=1;startSize=30;horizontalStack=0;resizeParent=1;resizeParentMax=0;resizeLast=0;collapsible=1;marginBottom=0;whiteSpace=wrap;html=1;" vertex="1" parent="1">
          <mxGeometry x="370" y="385" width="140" height="90" as="geometry" />
        </mxCell>
        <mxCell id="ZPIlwWj8LMpfvsK2ReM4-70" value="&lt;u&gt;Rut&lt;/u&gt;" style="text;strokeColor=none;fillColor=none;align=left;verticalAlign=middle;spacingLeft=4;spacingRight=4;overflow=hidden;points=[[0,0.5],[1,0.5]];portConstraint=eastwest;rotatable=0;whiteSpace=wrap;html=1;" vertex="1" parent="ZPIlwWj8LMpfvsK2ReM4-69">
          <mxGeometry y="30" width="140" height="30" as="geometry" />
        </mxCell>
        <mxCell id="ZPIlwWj8LMpfvsK2ReM4-71" value="Nombre" style="text;strokeColor=none;fillColor=none;align=left;verticalAlign=middle;spacingLeft=4;spacingRight=4;overflow=hidden;points=[[0,0.5],[1,0.5]];portConstraint=eastwest;rotatable=0;whiteSpace=wrap;html=1;" vertex="1" parent="ZPIlwWj8LMpfvsK2ReM4-69">
          <mxGeometry y="60" width="140" height="30" as="geometry" />
        </mxCell>
        <mxCell id="ZPIlwWj8LMpfvsK2ReM4-73" value="Proyecto de titulo" style="swimlane;fontStyle=0;childLayout=stackLayout;horizontal=1;startSize=30;horizontalStack=0;resizeParent=1;resizeParentMax=0;resizeLast=0;collapsible=1;marginBottom=0;whiteSpace=wrap;html=1;" vertex="1" parent="1">
          <mxGeometry x="700" y="280" width="140" height="90" as="geometry" />
        </mxCell>
        <mxCell id="ZPIlwWj8LMpfvsK2ReM4-74" value="&lt;u&gt;Idp&lt;/u&gt;" style="text;strokeColor=none;fillColor=none;align=left;verticalAlign=middle;spacingLeft=4;spacingRight=4;overflow=hidden;points=[[0,0.5],[1,0.5]];portConstraint=eastwest;rotatable=0;whiteSpace=wrap;html=1;" vertex="1" parent="ZPIlwWj8LMpfvsK2ReM4-73">
          <mxGeometry y="30" width="140" height="30" as="geometry" />
        </mxCell>
        <mxCell id="ZPIlwWj8LMpfvsK2ReM4-75" value="descripciòn" style="text;strokeColor=none;fillColor=none;align=left;verticalAlign=middle;spacingLeft=4;spacingRight=4;overflow=hidden;points=[[0,0.5],[1,0.5]];portConstraint=eastwest;rotatable=0;whiteSpace=wrap;html=1;" vertex="1" parent="ZPIlwWj8LMpfvsK2ReM4-73">
          <mxGeometry y="60" width="140" height="30" as="geometry" />
        </mxCell>
        <mxCell id="ZPIlwWj8LMpfvsK2ReM4-77" value="preparan" style="rhombus;whiteSpace=wrap;html=1;" vertex="1" parent="1">
          <mxGeometry x="560" y="260" width="70" height="70" as="geometry" />
        </mxCell>
        <mxCell id="ZPIlwWj8LMpfvsK2ReM4-78" value="" style="endArrow=none;html=1;rounded=0;entryX=1;entryY=0.5;entryDx=0;entryDy=0;exitX=0;exitY=0;exitDx=0;exitDy=0;" edge="1" parent="1" source="ZPIlwWj8LMpfvsK2ReM4-77" target="ZPIlwWj8LMpfvsK2ReM4-66">
          <mxGeometry width="50" height="50" relative="1" as="geometry">
            <mxPoint x="380" y="390" as="sourcePoint" />
            <mxPoint x="430" y="340" as="targetPoint" />
          </mxGeometry>
        </mxCell>
        <mxCell id="ZPIlwWj8LMpfvsK2ReM4-119" value="1,n" style="edgeLabel;html=1;align=center;verticalAlign=middle;resizable=0;points=[];" vertex="1" connectable="0" parent="ZPIlwWj8LMpfvsK2ReM4-78">
          <mxGeometry x="0.6592" y="-2" relative="1" as="geometry">
            <mxPoint as="offset" />
          </mxGeometry>
        </mxCell>
        <mxCell id="ZPIlwWj8LMpfvsK2ReM4-79" value="" style="endArrow=none;html=1;rounded=0;entryX=0;entryY=0.25;entryDx=0;entryDy=0;exitX=1;exitY=1;exitDx=0;exitDy=0;" edge="1" parent="1" source="ZPIlwWj8LMpfvsK2ReM4-77" target="ZPIlwWj8LMpfvsK2ReM4-73">
          <mxGeometry width="50" height="50" relative="1" as="geometry">
            <mxPoint x="380" y="390" as="sourcePoint" />
            <mxPoint x="430" y="340" as="targetPoint" />
          </mxGeometry>
        </mxCell>
        <mxCell id="ZPIlwWj8LMpfvsK2ReM4-120" value="1,1" style="edgeLabel;html=1;align=center;verticalAlign=middle;resizable=0;points=[];" vertex="1" connectable="0" parent="ZPIlwWj8LMpfvsK2ReM4-79">
          <mxGeometry x="0.6443" y="1" relative="1" as="geometry">
            <mxPoint as="offset" />
          </mxGeometry>
        </mxCell>
        <mxCell id="ZPIlwWj8LMpfvsK2ReM4-84" value="guiado" style="rhombus;whiteSpace=wrap;html=1;" vertex="1" parent="1">
          <mxGeometry x="630" y="395" width="80" height="80" as="geometry" />
        </mxCell>
        <mxCell id="ZPIlwWj8LMpfvsK2ReM4-85" value="" style="endArrow=none;html=1;rounded=0;exitX=1.026;exitY=0.915;exitDx=0;exitDy=0;exitPerimeter=0;entryX=0;entryY=0.5;entryDx=0;entryDy=0;" edge="1" parent="1" source="ZPIlwWj8LMpfvsK2ReM4-70" target="ZPIlwWj8LMpfvsK2ReM4-84">
          <mxGeometry width="50" height="50" relative="1" as="geometry">
            <mxPoint x="590" y="380" as="sourcePoint" />
            <mxPoint x="640" y="330" as="targetPoint" />
          </mxGeometry>
        </mxCell>
        <mxCell id="ZPIlwWj8LMpfvsK2ReM4-87" value="1,n" style="edgeLabel;html=1;align=center;verticalAlign=middle;resizable=0;points=[];" vertex="1" connectable="0" parent="ZPIlwWj8LMpfvsK2ReM4-85">
          <mxGeometry x="-0.8484" y="-2" relative="1" as="geometry">
            <mxPoint as="offset" />
          </mxGeometry>
        </mxCell>
        <mxCell id="ZPIlwWj8LMpfvsK2ReM4-86" value="" style="endArrow=none;html=1;rounded=0;entryX=0.414;entryY=0.987;entryDx=0;entryDy=0;entryPerimeter=0;" edge="1" parent="1" source="ZPIlwWj8LMpfvsK2ReM4-84" target="ZPIlwWj8LMpfvsK2ReM4-75">
          <mxGeometry width="50" height="50" relative="1" as="geometry">
            <mxPoint x="590" y="380" as="sourcePoint" />
            <mxPoint x="640" y="330" as="targetPoint" />
          </mxGeometry>
        </mxCell>
        <mxCell id="ZPIlwWj8LMpfvsK2ReM4-88" value="1,n" style="edgeLabel;html=1;align=center;verticalAlign=middle;resizable=0;points=[];" vertex="1" connectable="0" parent="ZPIlwWj8LMpfvsK2ReM4-86">
          <mxGeometry x="0.5445" y="-1" relative="1" as="geometry">
            <mxPoint as="offset" />
          </mxGeometry>
        </mxCell>
        <mxCell id="ZPIlwWj8LMpfvsK2ReM4-89" value="&lt;p style=&quot;margin: 0px ; margin-top: 4px ; margin-left: 10px ; text-align: left&quot;&gt;&lt;b&gt;Ejercicio 3&lt;/b&gt;&lt;/p&gt;" style="html=1;strokeWidth=1;shape=mxgraph.sysml.package;html=1;overflow=fill;whiteSpace=wrap;fillColor=none;gradientColor=none;fontSize=12;align=center;labelX=327.64;" vertex="1" parent="1">
          <mxGeometry x="300" y="110" width="620" height="410" as="geometry" />
        </mxCell>
        <mxCell id="ZPIlwWj8LMpfvsK2ReM4-90" value="Docentes" style="swimlane;fontStyle=0;childLayout=stackLayout;horizontal=1;startSize=30;horizontalStack=0;resizeParent=1;resizeParentMax=0;resizeLast=0;collapsible=1;marginBottom=0;whiteSpace=wrap;html=1;" vertex="1" parent="1">
          <mxGeometry x="190" y="750" width="140" height="90" as="geometry" />
        </mxCell>
        <mxCell id="ZPIlwWj8LMpfvsK2ReM4-91" value="&lt;u&gt;Rut&lt;/u&gt;" style="text;strokeColor=none;fillColor=none;align=left;verticalAlign=middle;spacingLeft=4;spacingRight=4;overflow=hidden;points=[[0,0.5],[1,0.5]];portConstraint=eastwest;rotatable=0;whiteSpace=wrap;html=1;" vertex="1" parent="ZPIlwWj8LMpfvsK2ReM4-90">
          <mxGeometry y="30" width="140" height="30" as="geometry" />
        </mxCell>
        <mxCell id="ZPIlwWj8LMpfvsK2ReM4-92" value="nombre" style="text;strokeColor=none;fillColor=none;align=left;verticalAlign=middle;spacingLeft=4;spacingRight=4;overflow=hidden;points=[[0,0.5],[1,0.5]];portConstraint=eastwest;rotatable=0;whiteSpace=wrap;html=1;" vertex="1" parent="ZPIlwWj8LMpfvsK2ReM4-90">
          <mxGeometry y="60" width="140" height="30" as="geometry" />
        </mxCell>
        <mxCell id="ZPIlwWj8LMpfvsK2ReM4-94" value="Facultades" style="swimlane;fontStyle=0;childLayout=stackLayout;horizontal=1;startSize=30;horizontalStack=0;resizeParent=1;resizeParentMax=0;resizeLast=0;collapsible=1;marginBottom=0;whiteSpace=wrap;html=1;" vertex="1" parent="1">
          <mxGeometry x="560" y="735" width="140" height="90" as="geometry" />
        </mxCell>
        <mxCell id="ZPIlwWj8LMpfvsK2ReM4-95" value="&lt;u&gt;idF&lt;/u&gt;" style="text;strokeColor=none;fillColor=none;align=left;verticalAlign=middle;spacingLeft=4;spacingRight=4;overflow=hidden;points=[[0,0.5],[1,0.5]];portConstraint=eastwest;rotatable=0;whiteSpace=wrap;html=1;" vertex="1" parent="ZPIlwWj8LMpfvsK2ReM4-94">
          <mxGeometry y="30" width="140" height="30" as="geometry" />
        </mxCell>
        <mxCell id="ZPIlwWj8LMpfvsK2ReM4-96" value="nombre" style="text;strokeColor=none;fillColor=none;align=left;verticalAlign=middle;spacingLeft=4;spacingRight=4;overflow=hidden;points=[[0,0.5],[1,0.5]];portConstraint=eastwest;rotatable=0;whiteSpace=wrap;html=1;" vertex="1" parent="ZPIlwWj8LMpfvsK2ReM4-94">
          <mxGeometry y="60" width="140" height="30" as="geometry" />
        </mxCell>
        <mxCell id="ZPIlwWj8LMpfvsK2ReM4-103" value="contratan" style="rhombus;whiteSpace=wrap;html=1;" vertex="1" parent="1">
          <mxGeometry x="410" y="785" width="80" height="80" as="geometry" />
        </mxCell>
        <mxCell id="ZPIlwWj8LMpfvsK2ReM4-104" value="" style="endArrow=none;html=1;rounded=0;entryX=0;entryY=0;entryDx=0;entryDy=0;" edge="1" parent="1" target="ZPIlwWj8LMpfvsK2ReM4-103">
          <mxGeometry width="50" height="50" relative="1" as="geometry">
            <mxPoint x="330" y="795" as="sourcePoint" />
            <mxPoint x="400" y="840" as="targetPoint" />
          </mxGeometry>
        </mxCell>
        <mxCell id="ZPIlwWj8LMpfvsK2ReM4-107" value="n" style="edgeLabel;html=1;align=center;verticalAlign=middle;resizable=0;points=[];" vertex="1" connectable="0" parent="ZPIlwWj8LMpfvsK2ReM4-104">
          <mxGeometry x="-0.6338" y="-2" relative="1" as="geometry">
            <mxPoint as="offset" />
          </mxGeometry>
        </mxCell>
        <mxCell id="ZPIlwWj8LMpfvsK2ReM4-105" value="" style="endArrow=none;html=1;rounded=0;entryX=0;entryY=0.5;entryDx=0;entryDy=0;exitX=1;exitY=0;exitDx=0;exitDy=0;" edge="1" parent="1" source="ZPIlwWj8LMpfvsK2ReM4-103" target="ZPIlwWj8LMpfvsK2ReM4-95">
          <mxGeometry width="50" height="50" relative="1" as="geometry">
            <mxPoint x="350" y="890" as="sourcePoint" />
            <mxPoint x="400" y="840" as="targetPoint" />
          </mxGeometry>
        </mxCell>
        <mxCell id="ZPIlwWj8LMpfvsK2ReM4-108" value="n" style="edgeLabel;html=1;align=center;verticalAlign=middle;resizable=0;points=[];" vertex="1" connectable="0" parent="ZPIlwWj8LMpfvsK2ReM4-105">
          <mxGeometry x="0.645" relative="1" as="geometry">
            <mxPoint as="offset" />
          </mxGeometry>
        </mxCell>
        <mxCell id="ZPIlwWj8LMpfvsK2ReM4-110" value="carrera" style="swimlane;fontStyle=0;childLayout=stackLayout;horizontal=1;startSize=30;horizontalStack=0;resizeParent=1;resizeParentMax=0;resizeLast=0;collapsible=1;marginBottom=0;whiteSpace=wrap;html=1;" vertex="1" parent="1">
          <mxGeometry x="726.72" y="150" width="140" height="90" as="geometry" />
        </mxCell>
        <mxCell id="ZPIlwWj8LMpfvsK2ReM4-111" value="&lt;u&gt;Codigoc&lt;/u&gt;" style="text;strokeColor=none;fillColor=none;align=left;verticalAlign=middle;spacingLeft=4;spacingRight=4;overflow=hidden;points=[[0,0.5],[1,0.5]];portConstraint=eastwest;rotatable=0;whiteSpace=wrap;html=1;" vertex="1" parent="ZPIlwWj8LMpfvsK2ReM4-110">
          <mxGeometry y="30" width="140" height="30" as="geometry" />
        </mxCell>
        <mxCell id="ZPIlwWj8LMpfvsK2ReM4-112" value="&lt;div&gt;nombre&lt;/div&gt;" style="text;strokeColor=none;fillColor=none;align=left;verticalAlign=middle;spacingLeft=4;spacingRight=4;overflow=hidden;points=[[0,0.5],[1,0.5]];portConstraint=eastwest;rotatable=0;whiteSpace=wrap;html=1;" vertex="1" parent="ZPIlwWj8LMpfvsK2ReM4-110">
          <mxGeometry y="60" width="140" height="30" as="geometry" />
        </mxCell>
        <mxCell id="ZPIlwWj8LMpfvsK2ReM4-114" value="pertenecen" style="rhombus;whiteSpace=wrap;html=1;" vertex="1" parent="1">
          <mxGeometry x="570" y="140" width="80" height="60" as="geometry" />
        </mxCell>
        <mxCell id="ZPIlwWj8LMpfvsK2ReM4-115" value="" style="endArrow=none;html=1;rounded=0;exitX=1;exitY=0.25;exitDx=0;exitDy=0;entryX=0;entryY=0.5;entryDx=0;entryDy=0;" edge="1" parent="1" source="ZPIlwWj8LMpfvsK2ReM4-65" target="ZPIlwWj8LMpfvsK2ReM4-114">
          <mxGeometry width="50" height="50" relative="1" as="geometry">
            <mxPoint x="580" y="320" as="sourcePoint" />
            <mxPoint x="630" y="270" as="targetPoint" />
          </mxGeometry>
        </mxCell>
        <mxCell id="ZPIlwWj8LMpfvsK2ReM4-118" value="1,n" style="edgeLabel;html=1;align=center;verticalAlign=middle;resizable=0;points=[];" vertex="1" connectable="0" parent="ZPIlwWj8LMpfvsK2ReM4-115">
          <mxGeometry x="-0.7543" y="2" relative="1" as="geometry">
            <mxPoint as="offset" />
          </mxGeometry>
        </mxCell>
        <mxCell id="ZPIlwWj8LMpfvsK2ReM4-116" value="" style="endArrow=none;html=1;rounded=0;entryX=1;entryY=0.5;entryDx=0;entryDy=0;exitX=0;exitY=0.5;exitDx=0;exitDy=0;" edge="1" parent="1" source="ZPIlwWj8LMpfvsK2ReM4-111" target="ZPIlwWj8LMpfvsK2ReM4-114">
          <mxGeometry width="50" height="50" relative="1" as="geometry">
            <mxPoint x="580" y="320" as="sourcePoint" />
            <mxPoint x="630" y="270" as="targetPoint" />
          </mxGeometry>
        </mxCell>
        <mxCell id="ZPIlwWj8LMpfvsK2ReM4-121" value="0,n" style="edgeLabel;html=1;align=center;verticalAlign=middle;resizable=0;points=[];" vertex="1" connectable="0" parent="ZPIlwWj8LMpfvsK2ReM4-116">
          <mxGeometry x="-0.6237" y="1" relative="1" as="geometry">
            <mxPoint as="offset" />
          </mxGeometry>
        </mxCell>
        <mxCell id="ZPIlwWj8LMpfvsK2ReM4-122" value="" style="endArrow=none;html=1;rounded=0;exitX=0;exitY=1;exitDx=0;exitDy=0;entryX=1;entryY=0;entryDx=0;entryDy=0;" edge="1" parent="1" source="ZPIlwWj8LMpfvsK2ReM4-103" target="ZPIlwWj8LMpfvsK2ReM4-123">
          <mxGeometry width="50" height="50" relative="1" as="geometry">
            <mxPoint x="330" y="940" as="sourcePoint" />
            <mxPoint x="380" y="890" as="targetPoint" />
          </mxGeometry>
        </mxCell>
        <mxCell id="ZPIlwWj8LMpfvsK2ReM4-123" value="Jornada" style="ellipse;whiteSpace=wrap;html=1;" vertex="1" parent="1">
          <mxGeometry x="280" y="910" width="120" height="80" as="geometry" />
        </mxCell>
        <mxCell id="ZPIlwWj8LMpfvsK2ReM4-124" value="&lt;p style=&quot;margin: 0px ; margin-top: 4px ; margin-left: 10px ; text-align: left&quot;&gt;&lt;b&gt;Ejercicio 4&lt;/b&gt;&lt;/p&gt;" style="html=1;strokeWidth=1;shape=mxgraph.sysml.package;html=1;overflow=fill;whiteSpace=wrap;fillColor=none;gradientColor=none;fontSize=12;align=center;labelX=327.64;" vertex="1" parent="1">
          <mxGeometry x="130" y="647.5" width="620" height="410" as="geometry" />
        </mxCell>
      </root>
    </mxGraphModel>
  </diagram>
</mxfile>
